<?xml version="1.0" standalone="no"?>
<!DOCTYPE svg PUBLIC "-//W3C//DTD SVG 20010904//EN"
 "http://www.w3.org/TR/2001/REC-SVG-20010904/DTD/svg10.dtd">
<svg version="1.0" xmlns="http://www.w3.org/2000/svg"
 width="1182.000000pt" height="1182.000000pt" viewBox="0 0 1182.000000 1182.000000"
 preserveAspectRatio="xMidYMid meet">
<metadata>
Created by potrace 1.14, written by Peter Selinger 2001-2017
</metadata>
<g transform="translate(0.000000,1182.000000) scale(0.100000,-0.100000)"
fill="#000000" stroke="none">
<path d="M5907 10654 c-1 -1 -69 -4 -152 -8 -82 -3 -168 -8 -190 -10 -22 -2
-67 -7 -100 -10 -92 -10 -248 -31 -300 -42 -11 -3 -36 -7 -55 -10 -19 -3 -38
-8 -41 -10 -4 -2 -27 -6 -50 -9 -24 -3 -53 -8 -64 -12 -11 -3 -29 -7 -40 -9
-11 -2 -29 -5 -40 -8 -11 -3 -49 -13 -85 -21 -60 -15 -82 -21 -135 -40 -11 -4
-27 -9 -35 -10 -15 -2 -82 -22 -110 -32 -8 -4 -17 -7 -20 -8 -127 -31 -620
-237 -620 -258 0 -4 -4 -5 -10 -2 -10 6 -59 -21 -72 -40 -4 -5 -8 -7 -8 -2 0
7 -26 -6 -170 -86 -25 -14 -64 -35 -88 -47 -23 -12 -39 -26 -36 -31 3 -5 2 -9
-3 -8 -18 3 -30 -2 -51 -21 -12 -11 -24 -20 -27 -20 -12 0 -165 -103 -165
-112 0 -5 -4 -7 -9 -4 -5 4 -11 2 -13 -2 -1 -5 -31 -28 -66 -51 -35 -23 -66
-49 -69 -57 -3 -8 -9 -11 -14 -8 -5 3 -9 0 -9 -5 0 -6 -6 -10 -12 -9 -7 2 -12
-3 -10 -10 1 -6 -1 -11 -5 -10 -16 3 -43 -15 -43 -28 0 -8 -4 -13 -8 -12 -14
5 -202 -155 -195 -165 3 -6 1 -7 -6 -3 -6 4 -14 0 -17 -8 -3 -9 -12 -16 -19
-16 -8 0 -16 -9 -20 -20 -3 -11 -12 -19 -18 -17 -7 1 -11 -4 -9 -11 1 -6 -4
-11 -10 -10 -7 2 -12 -3 -10 -9 1 -7 -2 -12 -7 -10 -10 3 -197 -185 -194 -195
2 -5 -2 -7 -9 -5 -6 1 -17 -9 -25 -23 -7 -14 -13 -22 -13 -17 0 8 -115 -123
-160 -182 -14 -18 -32 -40 -42 -49 -27 -28 -108 -141 -108 -153 0 -5 -4 -7
-10 -4 -5 3 -10 0 -10 -9 0 -8 -3 -16 -7 -18 -13 -5 -65 -78 -56 -78 4 0 -2
-7 -13 -15 -12 -8 -27 -28 -34 -45 -7 -16 -17 -30 -22 -30 -5 0 -7 -4 -4 -9 4
-5 3 -11 -2 -13 -15 -6 -52 -61 -46 -69 3 -5 1 -9 -4 -9 -6 0 -20 -19 -32 -42
-12 -24 -25 -45 -29 -48 -6 -5 -23 -34 -58 -100 -10 -19 -21 -37 -24 -40 -17
-15 -188 -373 -183 -382 4 -7 2 -8 -4 -4 -11 6 -17 -12 -13 -36 0 -5 -4 -8
-10 -8 -5 0 -8 -4 -5 -9 4 -5 2 -11 -3 -13 -5 -1 -11 -12 -13 -23 -1 -11 -7
-23 -11 -26 -4 -3 -9 -16 -10 -27 -1 -12 -5 -22 -10 -22 -5 0 -7 -6 -4 -14 3
-8 1 -16 -5 -18 -6 -2 -12 -13 -13 -24 -1 -10 -9 -35 -18 -54 -26 -60 -87
-240 -80 -240 3 0 0 -7 -7 -15 -7 -8 -9 -15 -5 -15 4 0 2 -6 -4 -14 -6 -8 -11
-18 -10 -22 2 -5 -7 -40 -19 -77 -12 -38 -20 -73 -17 -77 3 -5 1 -11 -4 -14
-8 -5 -25 -70 -37 -141 -2 -11 -15 -72 -29 -135 -13 -63 -27 -137 -30 -165 -3
-27 -8 -59 -11 -70 -6 -29 -19 -139 -29 -250 -25 -270 -25 -684 0 -900 2 -16
6 -57 10 -90 3 -33 8 -73 10 -90 3 -16 7 -46 9 -65 8 -55 15 -103 21 -130 3
-14 7 -38 10 -55 3 -16 8 -41 10 -55 3 -14 8 -36 10 -50 3 -14 7 -36 10 -50 3
-14 17 -68 30 -120 14 -52 28 -108 31 -125 19 -101 212 -628 272 -739 9 -17
17 -33 17 -36 4 -16 42 -86 50 -92 6 -4 7 -8 2 -8 -8 0 52 -112 66 -121 5 -3
8 -10 8 -15 -1 -17 10 -44 20 -44 5 0 9 -9 9 -19 0 -10 7 -21 15 -25 8 -3 15
-9 14 -13 -3 -19 2 -34 9 -29 5 3 9 0 9 -7 0 -11 60 -115 72 -127 4 -3 14 -21
25 -40 10 -19 25 -40 33 -47 8 -6 15 -15 15 -20 1 -19 11 -32 19 -27 5 3 8 2
7 -3 -3 -11 34 -73 44 -73 4 0 8 -6 8 -14 0 -8 10 -22 22 -31 13 -8 22 -19 22
-23 -3 -15 8 -32 17 -26 5 3 9 2 8 -3 -4 -21 2 -33 17 -33 8 0 13 -4 10 -8 -3
-5 10 -25 28 -45 19 -21 32 -37 29 -37 -2 0 2 -6 9 -14 7 -8 24 -29 38 -48 14
-18 37 -46 52 -61 16 -16 28 -31 28 -34 0 -2 22 -27 49 -54 27 -27 47 -49 45
-49 -3 0 6 -11 18 -24 13 -13 27 -21 32 -18 5 3 6 1 3 -5 -3 -5 18 -33 48 -62
30 -28 55 -55 55 -60 0 -5 4 -11 10 -13 5 -1 41 -34 80 -71 38 -37 70 -65 70
-62 0 3 14 -10 31 -30 17 -19 35 -33 39 -30 5 3 12 0 16 -6 5 -8 3 -9 -7 -4
-12 8 -12 6 0 -8 7 -9 20 -17 27 -17 8 0 14 -4 14 -8 0 -5 44 -43 98 -86 53
-43 105 -84 115 -92 9 -8 21 -14 26 -14 5 0 11 -4 13 -8 5 -13 158 -124 158
-115 0 4 4 3 8 -2 12 -18 95 -75 109 -75 7 0 13 -3 13 -8 0 -8 78 -58 85 -54
3 1 14 -7 25 -18 12 -12 25 -18 30 -15 6 4 10 2 10 -2 0 -5 13 -17 30 -26 16
-10 30 -16 30 -13 0 3 9 -3 20 -14 12 -12 25 -18 30 -15 6 4 10 3 10 -2 0 -4
10 -13 23 -19 12 -6 81 -41 152 -76 72 -36 146 -73 165 -81 60 -28 334 -138
350 -141 8 -2 22 -6 30 -9 49 -22 194 -66 200 -62 5 3 10 2 12 -3 3 -7 173
-57 223 -66 11 -1 27 -6 35 -9 24 -10 246 -55 305 -62 17 -2 41 -6 55 -10 14
-3 45 -8 70 -11 25 -3 61 -7 80 -10 224 -29 376 -38 635 -38 181 1 308 6 430
19 17 1 59 5 95 9 36 3 74 8 85 10 11 2 43 7 70 10 62 9 111 16 139 22 11 2
37 7 56 10 19 3 43 7 52 10 10 3 30 7 45 10 16 2 40 7 55 10 15 3 30 5 33 5 2
0 23 6 45 14 22 8 41 14 43 13 4 -2 112 25 122 30 5 3 16 7 25 8 46 8 110 29
110 36 0 5 4 7 9 4 8 -5 94 21 171 51 8 3 21 7 29 9 12 2 75 26 156 59 90 37
120 50 125 55 3 3 12 6 20 8 8 2 35 13 60 25 25 11 48 20 53 19 4 -1 7 2 7 8
0 5 6 10 13 10 20 0 268 128 279 145 5 6 8 6 8 0 0 -5 7 -1 15 9 8 11 15 16
15 12 0 -4 18 3 40 15 22 13 40 26 40 31 0 4 7 8 15 8 8 0 15 5 15 10 0 6 4 9
9 8 8 -3 190 109 201 123 3 3 25 19 50 34 25 15 47 31 50 34 3 3 24 19 48 35
23 16 42 33 42 38 0 5 4 7 9 4 5 -4 11 -3 13 1 1 5 21 21 43 38 50 37 83 64
112 92 13 12 23 20 23 18 0 -2 15 9 32 26 18 16 36 29 41 29 4 0 6 4 2 9 -3 5
4 12 15 16 11 3 20 11 20 16 0 5 8 13 17 16 22 9 53 40 45 47 -3 3 0 6 7 6 18
0 222 201 215 211 -3 5 1 9 8 9 12 0 52 36 58 51 1 4 31 37 66 74 35 38 61 72
58 77 -3 5 -1 7 4 6 5 -2 33 26 61 62 28 36 62 78 76 94 14 15 22 33 18 39 -3
6 -1 7 5 3 7 -4 12 -3 12 2 0 4 9 18 20 30 12 12 17 22 13 22 -4 0 -3 4 2 8
21 15 74 89 68 96 -3 3 -2 6 4 6 12 0 119 160 115 172 -1 4 2 8 6 8 4 0 16 15
27 33 10 17 30 50 44 72 14 22 25 42 26 45 0 3 10 20 23 37 13 18 20 37 17 43
-3 5 -2 10 3 10 13 0 73 116 65 124 -4 3 -2 6 4 6 10 0 63 100 63 119 0 6 5
11 10 11 6 0 9 3 8 8 -1 4 5 21 15 38 9 17 13 34 10 38 -4 3 -1 6 6 6 7 0 11
6 9 12 -3 7 1 19 9 26 7 8 11 18 8 23 -4 5 -1 9 4 9 6 0 10 3 9 8 -1 4 3 17
10 29 7 13 9 23 5 23 -4 0 -3 4 3 8 5 4 17 27 27 52 9 25 22 59 28 75 30 74
47 130 43 137 -3 5 0 8 6 8 6 0 10 6 8 13 -1 6 3 22 10 35 7 12 10 22 7 22 -3
0 1 14 10 30 9 16 13 30 9 30 -4 0 -2 6 4 13 5 6 13 28 18 47 11 49 11 49 14
55 1 3 3 8 4 13 1 4 7 25 14 46 6 22 9 43 6 47 -2 4 0 10 5 13 5 3 12 20 15
38 7 39 10 54 30 133 8 33 15 61 15 63 2 16 14 87 21 122 5 25 12 63 14 85 3
22 7 51 10 65 8 46 27 204 32 270 14 199 16 250 17 410 0 157 -8 363 -17 445
-2 17 -7 63 -11 103 -3 41 -8 83 -11 95 -2 12 -6 38 -8 57 -4 35 -22 144 -31
190 -2 13 -7 42 -11 64 -3 22 -10 48 -14 57 -5 9 -8 18 -5 20 2 2 -3 31 -11
64 -8 33 -17 74 -20 90 -3 17 -10 35 -15 41 -5 6 -6 13 -4 16 3 3 1 18 -6 34
-6 16 -12 36 -14 44 -12 57 -31 116 -38 121 -5 3 -7 8 -5 10 5 6 -25 109 -32
109 -3 0 -7 12 -8 27 -1 15 -5 29 -10 32 -4 3 -9 17 -10 31 -2 14 -8 27 -13
28 -5 2 -7 8 -3 13 3 5 0 9 -7 9 -7 0 -10 3 -6 6 8 9 -32 115 -94 249 -12 28
-23 52 -24 55 -3 18 -68 146 -77 151 -5 3 -9 9 -9 13 3 17 -12 55 -20 50 -5
-3 -9 1 -9 9 0 18 -41 100 -52 105 -5 2 -8 7 -8 12 0 13 -100 184 -112 191 -5
3 -9 9 -9 12 1 12 -34 67 -42 67 -5 0 -5 5 -2 10 3 6 -1 13 -9 16 -9 3 -14 10
-11 14 3 5 -1 12 -9 17 -8 4 -15 11 -16 15 -2 15 -35 68 -42 68 -5 0 -8 6 -8
13 0 7 -13 27 -30 45 -16 18 -30 36 -30 40 0 4 -10 19 -23 34 -12 14 -29 36
-37 49 -8 12 -27 35 -42 50 -15 16 -25 29 -23 29 5 0 -32 44 -62 76 -7 7 -13
15 -13 19 0 4 -13 20 -30 37 -16 16 -30 34 -30 39 0 5 -8 9 -17 9 -9 0 -13 3
-10 6 3 4 -20 33 -52 65 -32 33 -56 59 -54 59 2 0 -35 39 -83 88 -48 48 -89
85 -91 82 -3 -3 -10 4 -16 16 -7 11 -30 36 -52 55 -22 18 -52 46 -66 61 -14
16 -29 28 -32 28 -3 0 -25 18 -48 40 -23 22 -46 37 -50 34 -5 -3 -9 2 -9 10 0
9 -4 16 -8 16 -5 0 -18 9 -30 20 -12 12 -22 19 -22 16 0 -3 -19 13 -42 34 -24
22 -51 42 -60 46 -10 3 -18 10 -18 15 0 6 -4 7 -10 4 -5 -3 -10 -2 -10 4 0 5
-20 24 -45 41 -25 17 -45 28 -45 25 0 -3 -11 6 -25 20 -14 14 -30 25 -34 25
-4 0 -21 11 -37 25 -16 14 -35 25 -41 25 -7 0 -13 5 -13 10 0 6 -7 10 -15 10
-8 0 -15 5 -15 11 0 5 -4 7 -10 4 -5 -3 -10 -1 -10 4 0 6 -6 11 -14 11 -8 0
-16 3 -18 8 -4 8 -123 82 -133 82 -3 0 -13 7 -22 15 -8 8 -19 13 -24 10 -5 -4
-9 -2 -9 4 0 5 -16 15 -35 22 -19 7 -35 16 -35 20 0 8 -28 19 -44 18 -5 0 -12
4 -15 9 -9 13 -151 84 -151 75 0 -5 -4 -3 -8 3 -4 6 -41 26 -82 44 -41 18 -92
40 -113 50 -20 10 -34 13 -30 7 3 -7 -2 -5 -13 4 -10 9 -30 20 -44 24 -14 4
-31 13 -39 19 -12 9 -13 8 -6 -4 7 -12 6 -13 -6 -3 -25 20 -170 73 -206 75 -7
1 -13 4 -13 8 0 6 -94 34 -115 35 -5 0 -12 3 -15 6 -4 5 -57 21 -113 34 -10 2
-27 7 -37 10 -10 3 -27 8 -37 10 -10 3 -38 9 -63 16 -25 6 -52 12 -60 14 -8 2
-26 6 -40 9 -14 3 -36 8 -50 10 -14 3 -34 7 -45 9 -22 5 -98 18 -130 23 -11 1
-45 7 -75 13 -30 5 -62 9 -70 9 -8 0 -28 2 -45 5 -16 3 -52 8 -80 12 -48 5
-70 7 -238 20 -75 6 -375 13 -380 9z m28 -517 c-4 -29 -8 -65 -9 -82 -2 -16
-4 -30 -6 -30 -1 0 -3 -13 -5 -30 -3 -29 -9 -76 -19 -140 -4 -27 -9 -58 -21
-145 -2 -14 -6 -47 -10 -75 -3 -27 -8 -63 -12 -80 -3 -16 -6 -41 -8 -55 -1
-14 -5 -45 -9 -70 -13 -77 -15 -93 -21 -153 -4 -32 -9 -68 -11 -80 -3 -12 -7
-38 -9 -57 -8 -74 -13 -101 -17 -105 -2 -2 -31 -7 -63 -10 -33 -3 -76 -8 -95
-10 -19 -3 -56 -7 -82 -10 -26 -3 -69 -10 -95 -15 -26 -6 -64 -13 -83 -16 -19
-2 -62 -12 -95 -20 -33 -9 -67 -17 -75 -19 -29 -6 -105 -26 -120 -32 -14 -5
-27 -9 -55 -16 -5 -1 -14 -5 -20 -9 -5 -3 -25 -9 -42 -13 -18 -3 -33 -11 -33
-16 0 -6 -4 -8 -9 -5 -23 15 -523 -218 -552 -257 -3 -5 -8 -8 -10 -7 -10 5
-58 -24 -53 -32 3 -5 1 -7 -4 -6 -11 4 -232 -143 -232 -154 0 -4 -7 -8 -15 -8
-8 0 -15 -7 -15 -15 0 -8 -3 -14 -7 -13 -13 5 -53 -28 -45 -36 4 -4 3 -6 -3
-4 -14 4 -57 -27 -48 -35 3 -4 -1 -7 -10 -7 -9 0 -22 -9 -29 -20 -7 -11 -17
-20 -21 -20 -12 0 -37 -27 -32 -34 3 -3 2 -4 -2 -1 -3 3 -14 -2 -24 -11 -15
-14 -24 -10 -101 48 -46 35 -97 72 -112 83 -16 11 -33 25 -40 30 -6 6 -27 22
-46 35 -35 25 -51 36 -73 55 -7 6 -39 31 -72 55 -33 25 -66 51 -73 58 -8 6
-23 17 -35 23 -17 8 -16 5 6 -13 15 -13 27 -28 27 -32 0 -5 10 -17 22 -27 11
-11 18 -19 13 -19 -4 0 3 -9 16 -21 13 -11 18 -17 11 -14 -11 6 -11 3 -1 -13
7 -12 17 -18 21 -16 4 3 8 1 8 -5 0 -6 10 -20 23 -32 12 -12 15 -19 7 -15 -9
5 -8 2 2 -7 10 -8 18 -18 18 -23 0 -5 9 -16 19 -24 11 -7 18 -17 15 -22 -3 -4
-1 -8 5 -8 5 0 13 -9 16 -20 4 -11 11 -18 16 -15 5 4 9 -1 9 -10 0 -8 7 -18
15 -21 8 -4 15 -15 15 -26 0 -10 4 -17 9 -14 4 3 13 -6 19 -19 7 -14 16 -25
22 -25 6 0 9 -4 5 -9 -3 -5 5 -17 17 -25 12 -9 19 -16 14 -16 -5 0 0 -8 12
-18 14 -12 18 -23 12 -32 -5 -8 -6 -18 -3 -24 3 -5 2 -6 -4 -3 -6 4 -21 -5
-33 -18 -13 -14 -20 -25 -15 -25 4 0 -4 -9 -19 -21 -14 -11 -23 -25 -20 -31 4
-7 2 -8 -4 -4 -7 4 -12 3 -12 -1 0 -5 -10 -19 -22 -33 -69 -76 -88 -102 -82
-113 4 -7 4 -9 -1 -5 -7 7 -45 -32 -45 -46 0 -4 -5 -12 -10 -19 -47 -55 -58
-72 -54 -79 3 -4 1 -8 -5 -8 -6 0 -19 -17 -30 -38 -11 -21 -27 -44 -35 -51 -9
-7 -14 -17 -11 -21 2 -4 -5 -18 -16 -31 -28 -32 -200 -380 -193 -390 3 -5 1
-9 -4 -9 -9 0 -25 -40 -26 -65 -1 -5 -4 -12 -7 -15 -9 -8 -79 -210 -72 -210 3
0 1 -6 -4 -12 -9 -11 -26 -70 -38 -128 -2 -8 -10 -43 -19 -76 -9 -34 -18 -77
-20 -95 -3 -19 -5 -34 -6 -34 -2 0 -8 -34 -14 -75 -3 -19 -7 -45 -10 -57 -5
-22 -22 -176 -25 -224 -1 -12 -20 -19 -83 -28 -46 -6 -94 -13 -108 -15 -14 -3
-45 -7 -70 -11 -138 -18 -198 -26 -225 -30 -16 -3 -66 -10 -110 -15 -44 -6
-87 -13 -95 -15 -8 -2 -39 -7 -69 -10 -30 -4 -61 -8 -70 -10 -9 -1 -38 -6 -66
-9 -45 -6 -126 -18 -227 -32 l-37 -6 4 116 c4 112 11 213 20 286 5 34 13 111
20 175 2 17 8 50 13 75 5 25 10 52 10 60 0 8 10 58 21 110 12 52 24 106 27
120 3 14 12 48 20 75 8 28 14 50 13 50 -1 0 4 20 11 45 7 25 11 45 10 45 -1 0
4 14 10 30 7 17 13 37 15 45 2 8 13 42 25 75 12 33 24 69 26 80 3 11 8 27 11
35 3 8 7 20 9 25 2 6 15 39 30 75 15 36 27 71 27 78 0 6 4 12 9 12 4 0 8 6 8
13 0 6 7 25 15 40 8 15 16 36 17 45 2 9 6 22 10 27 23 31 165 325 159 331 -3
4 -1 4 5 1 6 -3 20 14 33 40 12 25 38 71 58 102 20 31 35 58 34 60 -2 2 1 7 6
10 15 10 76 105 76 118 0 7 3 11 5 8 6 -6 57 67 54 78 -1 4 2 7 6 7 11 0 78
93 74 103 -1 5 2 6 7 3 9 -6 26 22 22 37 -1 5 3 6 9 2 5 -3 10 -2 10 2 0 5 18
29 39 53 22 25 37 49 34 54 -4 5 -1 6 5 2 5 -3 12 -2 14 3 5 13 111 133 196
220 41 42 83 87 94 101 11 14 23 25 26 25 4 0 6 3 4 8 -1 4 4 6 10 5 7 -2 11
4 10 12 -2 8 -1 12 3 8 4 -4 17 3 29 15 12 12 39 36 59 53 20 17 35 34 32 37
-3 4 -2 5 1 2 7 -5 114 82 153 124 13 14 20 20 15 12 -4 -8 9 -1 29 15 20 16
37 33 37 37 0 5 4 6 8 3 4 -3 24 10 43 27 19 18 37 33 39 34 3 1 13 5 22 8 10
4 15 11 12 16 -3 5 -2 8 3 7 9 -3 186 111 191 124 2 4 8 6 13 2 5 -3 9 0 9 5
0 6 6 11 14 11 8 0 21 6 28 13 7 7 27 20 45 27 17 8 29 19 26 25 -4 5 -2 7 2
2 5 -4 18 -1 30 7 73 48 456 231 545 261 3 1 16 6 30 12 14 6 57 21 95 34 39
13 72 26 75 29 3 3 14 7 25 8 11 2 47 13 80 24 33 11 67 21 76 23 9 2 47 12
85 23 59 17 170 44 239 58 11 2 31 6 45 9 14 2 39 7 55 10 17 2 55 9 85 16 30
6 69 12 85 13 57 6 160 17 185 21 14 2 68 7 120 10 52 4 96 7 97 8 1 1 40 3
88 4 l86 1 -6 -51z m390 38 c124 -10 170 -15 191 -19 11 -2 47 -7 80 -11 97
-12 108 -14 134 -20 35 -7 81 -16 110 -20 14 -2 66 -13 115 -25 50 -12 99 -23
109 -25 10 -3 33 -9 51 -15 18 -6 41 -12 51 -15 10 -2 34 -9 53 -14 19 -6 37
-8 42 -6 4 3 9 2 11 -2 1 -5 62 -28 133 -52 72 -24 154 -54 184 -67 29 -13 57
-21 62 -18 5 3 9 1 9 -4 0 -9 69 -39 82 -34 4 1 8 -2 8 -8 0 -5 9 -10 20 -10
11 0 20 -5 20 -10 0 -6 3 -9 8 -8 8 2 191 -87 280 -137 34 -19 62 -31 62 -27
0 4 4 2 8 -4 4 -6 43 -32 87 -59 93 -56 188 -117 195 -126 9 -10 55 -33 63
-31 4 1 7 -2 7 -7 0 -12 183 -146 195 -142 5 1 7 -1 3 -5 -8 -8 32 -41 45 -36
4 1 6 -1 5 -5 -2 -5 1 -8 5 -8 5 0 13 -8 18 -17 6 -10 17 -18 26 -18 9 0 13
-3 10 -6 -8 -8 44 -50 56 -46 5 1 6 -1 3 -6 -6 -10 74 -79 87 -74 4 1 6 -4 5
-10 -2 -7 3 -12 10 -10 6 1 11 -1 10 -5 -2 -5 17 -28 41 -53 24 -25 41 -39 36
-31 -5 9 -4 12 3 7 7 -4 12 -12 12 -17 0 -13 72 -85 83 -81 4 1 6 -4 5 -10 -2
-7 3 -12 10 -10 6 1 11 -4 10 -10 -2 -7 3 -12 10 -10 8 1 11 -2 8 -7 -3 -5 9
-21 26 -37 18 -15 33 -30 33 -33 -1 -6 34 -47 73 -87 12 -13 22 -27 22 -31 0
-4 9 -16 20 -28 51 -53 78 -84 74 -87 -2 -3 12 -20 30 -40 19 -20 33 -38 30
-40 -2 -2 10 -19 26 -36 16 -18 30 -36 31 -40 3 -12 62 -96 73 -104 7 -5 7 -8
1 -8 -6 0 -6 -3 0 -8 13 -8 115 -175 171 -277 21 -38 42 -73 47 -76 5 -3 8 -8
7 -10 -3 -8 14 -45 29 -63 9 -10 15 -20 13 -22 -1 -2 14 -39 34 -82 50 -105
145 -341 174 -432 14 -41 27 -77 30 -80 3 -3 6 -14 8 -25 2 -11 10 -38 17 -60
7 -22 16 -57 20 -78 4 -20 11 -37 17 -37 5 0 7 -4 4 -9 -3 -5 1 -30 8 -57 8
-27 17 -62 20 -79 3 -16 12 -61 21 -100 8 -38 17 -81 19 -95 3 -14 6 -34 9
-45 5 -22 15 -88 22 -150 3 -22 7 -56 10 -75 11 -75 20 -194 30 -374 l5 -98
-57 6 c-32 4 -69 8 -83 10 -47 7 -115 17 -155 22 -22 3 -51 7 -65 9 -26 4 -86
13 -130 19 -14 2 -50 7 -80 10 -30 4 -68 9 -85 12 -16 4 -41 8 -55 9 -14 2
-41 6 -60 9 -19 3 -57 8 -85 12 -27 3 -61 8 -75 10 -14 2 -43 6 -64 9 -47 6
-116 16 -136 20 -8 2 -19 4 -25 4 -5 1 -10 16 -11 34 0 17 -4 57 -7 87 -4 30
-9 71 -11 90 -8 79 -42 260 -65 345 -11 39 -26 97 -35 130 -9 33 -18 65 -20
70 -2 6 -4 12 -4 15 0 5 -28 78 -47 125 -4 11 -9 25 -10 30 -2 6 -11 28 -20
50 -10 22 -19 45 -21 50 -6 26 -67 151 -76 156 -5 3 -9 9 -7 13 5 15 -106 214
-116 209 -5 -4 -7 -3 -3 2 7 7 -26 73 -43 85 -3 3 -9 15 -13 28 -5 13 -12 20
-19 16 -7 -4 -9 -4 -5 1 8 8 -76 136 -120 183 -15 16 -33 41 -41 55 -8 15 -18
24 -23 21 -5 -3 -7 -1 -6 3 3 9 -69 97 -119 149 -13 13 -23 28 -23 33 0 8 198
279 282 386 111 141 153 206 87 134 -18 -19 -29 -27 -24 -19 4 8 -4 2 -19 -14
-14 -16 -26 -25 -26 -20 -1 5 -10 -2 -20 -15 -11 -13 -20 -19 -20 -15 -1 5 -9
-1 -19 -13 -10 -12 -21 -19 -25 -16 -3 4 -6 1 -6 -6 0 -7 -4 -9 -10 -6 -5 3
-10 2 -10 -4 0 -5 -19 -23 -42 -40 -24 -16 -54 -40 -68 -53 -13 -12 -25 -21
-26 -18 -1 3 -15 -6 -31 -20 -15 -14 -40 -33 -54 -42 -14 -9 -32 -23 -40 -30
-8 -8 -28 -23 -46 -33 -32 -19 -32 -19 -51 3 -11 12 -21 22 -24 22 -2 0 -31
25 -63 55 -32 29 -63 51 -68 48 -6 -3 -7 -1 -4 4 6 9 -14 24 -35 27 -3 1 -10
5 -15 10 -5 5 -2 6 7 2 8 -4 4 2 -10 13 -14 11 -31 21 -38 21 -7 0 -11 4 -8 8
3 5 -7 15 -22 23 -15 8 -29 17 -32 20 -3 4 -48 34 -100 68 -52 33 -100 65
-107 71 -7 5 -16 10 -20 10 -4 0 -32 16 -62 35 -30 19 -58 32 -63 29 -4 -3 -8
-1 -8 4 0 7 -38 31 -60 37 -3 1 -34 15 -70 33 -36 17 -69 31 -75 32 -5 1 -15
5 -20 10 -23 19 -336 133 -343 125 -3 -3 -10 -1 -16 4 -10 9 -122 41 -156 46
-8 1 -33 7 -56 13 -22 7 -56 14 -75 16 -19 3 -34 5 -34 6 0 1 -13 4 -30 6 -16
3 -52 9 -80 14 -27 5 -81 13 -120 16 -38 4 -79 8 -90 9 -11 2 -30 4 -41 4 -23
1 -26 11 -39 131 -3 25 -7 56 -10 70 -2 14 -7 45 -10 70 -4 25 -12 88 -20 140
-8 52 -17 115 -20 140 -3 25 -8 56 -10 70 -2 14 -11 75 -19 135 -22 159 -26
187 -31 220 -2 17 -7 53 -10 80 -3 28 -8 62 -11 77 l-5 28 108 -5 c59 -3 140
-7 178 -10z m-631 -1747 c-2 -13 -6 -45 -9 -73 -3 -27 -8 -62 -10 -77 -3 -16
-8 -43 -11 -60 -3 -18 -7 -49 -9 -68 -2 -19 -6 -48 -9 -65 -3 -16 -8 -50 -11
-75 -3 -25 -8 -56 -10 -70 -3 -14 -8 -43 -10 -65 -7 -69 -14 -119 -20 -155 -3
-19 -8 -51 -10 -70 -3 -19 -7 -51 -10 -70 -7 -39 -10 -63 -19 -135 -4 -27 -9
-62 -11 -76 -5 -30 -14 -90 -20 -139 -3 -19 -7 -51 -10 -70 -3 -19 -7 -48 -9
-65 -2 -16 -7 -50 -11 -75 -4 -25 -9 -58 -10 -75 -1 -16 -7 -30 -13 -30 -6 0
-69 43 -139 95 -70 52 -128 93 -128 91 0 -3 -15 10 -32 28 -20 20 -38 29 -45
25 -7 -4 -10 -4 -6 1 8 8 -161 141 -174 137 -5 -1 -8 2 -8 7 0 13 -172 137
-185 133 -5 -2 -7 -1 -3 3 4 4 -21 28 -55 53 -34 25 -64 48 -67 51 -3 3 -21
17 -40 31 -19 13 -39 28 -45 33 -5 4 -55 42 -110 83 -55 41 -111 83 -125 94
-13 11 -28 20 -32 20 -18 0 -6 29 20 46 15 9 32 23 37 29 6 7 39 34 75 60 36
27 68 53 71 58 3 5 9 8 13 8 8 -1 149 90 157 102 3 5 10 9 15 9 17 1 54 21 54
30 0 4 3 7 8 6 8 -3 164 70 172 81 3 3 14 8 25 9 11 2 23 9 27 15 4 7 8 9 8 5
0 -3 38 9 85 28 47 19 92 34 100 34 8 0 15 4 15 8 0 5 6 9 13 10 23 1 102 22
147 39 8 3 22 7 30 8 8 1 42 8 75 15 33 7 67 14 75 15 8 2 17 4 20 5 3 1 8 2
11 2 5 -1 162 25 166 27 1 1 0 -9 -3 -21z m674 6 c20 -3 46 -6 57 -8 11 -2 38
-7 60 -11 22 -4 67 -14 100 -22 33 -8 68 -17 78 -19 9 -2 25 -6 35 -8 9 -2 64
-21 122 -41 58 -20 113 -37 123 -38 9 -1 17 -5 17 -9 0 -4 4 -8 9 -8 5 0 26
-8 47 -17 22 -9 41 -17 44 -18 9 -1 194 -96 226 -116 17 -10 34 -16 37 -12 4
3 7 1 7 -5 0 -12 59 -48 73 -44 4 1 7 -2 7 -6 0 -9 77 -62 90 -62 4 0 11 -7
14 -16 3 -8 10 -12 16 -9 5 3 10 2 10 -2 0 -12 92 -78 103 -75 5 1 6 -2 2 -8
-3 -5 -3 -10 2 -10 4 0 23 -14 42 -32 33 -31 34 -32 13 -41 -12 -6 -22 -14
-22 -19 0 -4 -5 -8 -11 -8 -7 0 -18 -8 -26 -17 -9 -12 -12 -12 -8 -3 4 8 -4 2
-19 -14 -14 -16 -26 -26 -26 -21 0 4 -11 -4 -25 -19 -14 -15 -25 -24 -25 -20
0 4 -7 -1 -16 -12 -8 -10 -13 -12 -9 -4 4 8 -5 2 -19 -15 -14 -16 -26 -26 -26
-21 0 5 -8 -1 -19 -12 -10 -12 -23 -22 -29 -22 -6 0 -18 -10 -26 -22 -9 -12
-16 -18 -16 -13 0 6 -5 2 -11 -7 -5 -10 -15 -18 -20 -18 -6 0 -16 -6 -24 -12
-28 -28 -55 -47 -55 -41 0 3 -11 -6 -25 -21 -14 -15 -25 -23 -25 -19 0 4 -5 0
-11 -9 -5 -10 -14 -18 -20 -18 -9 0 -21 -8 -54 -37 -7 -7 -19 -13 -25 -13 -6
0 -8 -4 -5 -10 3 -5 -1 -10 -10 -10 -8 0 -18 -7 -21 -15 -4 -8 -10 -13 -14
-10 -4 3 -10 -2 -14 -10 -3 -8 -10 -15 -16 -15 -6 0 -25 -13 -43 -30 -18 -16
-38 -30 -44 -30 -7 0 -18 -9 -25 -20 -7 -11 -17 -20 -23 -20 -6 0 -17 -9 -25
-19 -7 -11 -17 -18 -22 -15 -4 3 -8 0 -8 -7 0 -7 -3 -10 -6 -6 -3 3 -17 -6
-30 -20 -13 -14 -24 -22 -24 -18 0 4 -8 -2 -19 -13 -10 -12 -24 -22 -30 -22
-6 0 -14 -7 -17 -15 -4 -8 -10 -13 -14 -10 -4 3 -11 -2 -14 -11 -4 -9 -9 -14
-13 -10 -3 3 -13 -3 -20 -14 -8 -11 -19 -18 -24 -15 -5 4 -9 -1 -9 -10 0 -9
-4 -13 -10 -10 -5 3 -10 1 -10 -4 0 -6 -6 -11 -14 -11 -8 0 -21 -9 -29 -20 -8
-11 -17 -17 -20 -13 -4 3 -7 1 -7 -5 0 -19 -30 -14 -31 6 0 9 -2 24 -3 32 -2
8 -7 40 -11 70 -4 30 -9 64 -10 75 -2 10 -9 60 -16 110 -6 49 -13 99 -15 110
-2 11 -6 40 -9 65 -3 25 -8 60 -11 78 -3 17 -7 49 -10 69 -2 20 -6 48 -9 62
-2 14 -7 49 -10 76 -3 28 -11 75 -16 105 -6 30 -11 62 -11 70 0 8 -7 60 -15
115 -8 55 -16 115 -19 133 -2 17 -6 48 -9 68 -3 19 -7 56 -10 82 -3 26 -8 54
-10 62 -13 47 -15 124 -3 131 6 4 16 5 20 3 5 -3 25 -8 46 -10z m-2343 -882
c-2 -2 6 -13 18 -23 12 -10 18 -18 13 -19 -6 0 -1 -7 10 -16 10 -8 12 -12 4
-8 -8 3 -1 -6 15 -22 17 -16 32 -32 33 -37 2 -8 16 -26 45 -58 9 -10 14 -19
10 -19 -5 -1 2 -9 14 -19 12 -10 19 -21 16 -25 -3 -3 2 -8 11 -12 9 -3 16 -13
16 -20 0 -8 6 -17 14 -20 8 -3 20 -19 26 -35 7 -16 16 -26 21 -23 5 3 9 -1 9
-9 0 -7 15 -28 33 -47 17 -18 25 -30 17 -26 -8 5 -3 -3 12 -17 14 -15 29 -36
33 -47 4 -11 11 -18 16 -15 5 4 9 -1 9 -9 0 -9 5 -16 12 -16 6 0 8 -3 5 -7 -4
-3 5 -17 19 -30 14 -12 22 -23 18 -23 -4 0 2 -9 13 -20 12 -10 24 -29 28 -40
4 -11 11 -18 16 -15 5 4 9 -1 9 -9 0 -9 5 -16 12 -16 6 0 9 -3 5 -6 -3 -3 4
-17 16 -30 12 -14 30 -34 40 -44 9 -11 16 -22 15 -25 -2 -2 12 -20 30 -39 17
-19 32 -38 32 -43 0 -5 13 -23 29 -41 17 -17 27 -32 23 -32 -4 -1 3 -9 15 -19
12 -10 20 -21 17 -24 -3 -3 4 -10 15 -17 12 -6 21 -17 21 -25 0 -8 9 -19 20
-25 11 -6 20 -16 20 -22 0 -6 8 -17 18 -25 10 -9 11 -11 2 -7 -8 4 -3 -5 13
-21 38 -39 34 -51 -20 -59 -93 -13 -118 -16 -153 -22 -19 -4 -46 -8 -60 -9
-14 -2 -79 -10 -145 -19 -124 -17 -142 -20 -210 -30 -22 -4 -58 -9 -80 -12
-22 -2 -67 -9 -100 -14 -33 -5 -80 -12 -105 -15 -25 -3 -56 -8 -70 -10 -14 -2
-43 -6 -65 -9 -57 -8 -325 -46 -355 -51 -14 -2 -47 -6 -73 -9 -27 -3 -53 -8
-58 -11 -8 -6 -13 9 -10 29 2 10 10 68 16 111 2 17 4 31 6 33 2 3 4 12 13 62
5 25 19 86 33 135 30 111 29 107 36 125 3 8 11 33 18 55 7 22 14 42 15 45 11
31 15 46 14 54 -1 5 2 12 7 15 11 7 59 123 55 134 -1 4 3 7 9 7 5 0 8 4 5 9
-4 5 -2 11 2 13 5 1 23 35 42 73 18 39 36 72 40 75 6 4 15 24 22 48 1 4 10 16
20 26 17 19 22 31 19 49 -1 5 3 6 8 3 5 -3 16 9 25 28 8 18 22 39 31 46 8 7
12 16 9 21 -3 5 -1 9 3 9 5 0 29 28 53 63 24 34 52 68 62 75 10 7 18 17 18 22
0 14 42 57 57 57 7 0 11 -2 8 -5z m3967 -6 c6 4 8 3 5 -3 -4 -6 11 -29 32 -52
21 -22 35 -41 32 -41 -3 0 1 -6 10 -13 8 -7 44 -55 79 -107 35 -52 68 -98 74
-102 6 -4 8 -8 4 -8 -4 0 4 -16 17 -36 13 -19 27 -44 30 -55 4 -10 11 -19 16
-19 5 0 9 -6 9 -14 0 -8 7 -22 16 -30 8 -9 13 -16 10 -16 -9 0 42 -97 54 -105
6 -4 8 -10 5 -15 -3 -4 6 -30 19 -57 14 -26 28 -60 31 -75 4 -16 10 -28 14
-28 4 0 7 -8 8 -19 1 -10 9 -36 19 -57 9 -21 18 -43 18 -49 4 -31 20 -82 28
-92 6 -7 8 -13 5 -13 -3 0 0 -21 8 -47 12 -42 31 -127 50 -228 3 -16 8 -54 11
-83 l6 -53 -28 5 c-16 2 -29 5 -29 6 0 2 -13 4 -100 15 -73 9 -95 12 -145 20
-25 4 -58 9 -75 10 -16 2 -46 6 -66 9 -20 4 -51 8 -70 11 -19 2 -50 6 -70 10
-20 3 -51 8 -70 10 -19 2 -52 7 -74 10 -22 3 -53 8 -70 10 -16 2 -52 7 -80 10
-27 4 -61 8 -75 11 -14 2 -41 6 -60 9 -19 3 -51 7 -70 9 -19 2 -35 5 -35 6 0
1 -16 4 -35 6 -55 5 -110 13 -149 20 -69 12 -173 25 -208 27 -13 1 -23 5 -23
9 0 13 23 48 52 81 15 17 26 33 24 35 -2 2 6 13 18 26 34 36 56 66 56 75 0 5
4 11 8 13 5 2 28 30 53 63 24 33 48 63 54 67 5 4 7 8 3 8 -5 0 0 8 10 18 22
25 42 49 72 92 14 19 32 44 41 55 9 11 82 108 163 215 80 107 149 200 153 205
5 6 32 40 61 78 29 37 49 67 45 67 -4 0 0 6 8 13 9 6 31 32 49 56 19 24 36 39
38 32 2 -6 9 -8 14 -5z m-2090 -1166 c4 0 2 -13 -3 -29 -10 -29 -32 -41 -76
-41 -22 0 -28 -11 -38 -65 -2 -16 -7 -41 -10 -55 -2 -13 -7 -42 -11 -64 -3
-22 -7 -43 -9 -46 -2 -3 -6 -22 -9 -42 -3 -21 -10 -57 -15 -80 -5 -24 -13 -63
-16 -88 -4 -25 -10 -64 -15 -87 l-7 -43 41 -1 c75 -2 111 2 122 14 6 7 21 40
34 75 l22 62 45 0 45 0 -7 -37 c-4 -21 -9 -45 -9 -53 -1 -9 -5 -20 -8 -25 -3
-6 -9 -29 -13 -53 -5 -32 -12 -43 -28 -46 -12 -3 -136 -4 -274 -4 l-253 1 0
29 c0 30 10 38 56 41 26 2 30 8 41 52 7 27 15 65 18 84 3 20 7 43 10 51 2 8 6
31 9 50 3 19 14 82 26 140 11 58 23 124 26 148 5 40 4 42 -23 43 -15 1 -31 1
-35 0 -5 0 -8 13 -8 29 0 21 6 33 19 38 15 5 286 7 353 2z m576 -403 c-3 -32
-10 -37 -57 -41 -35 -2 -44 -9 -48 -34 -1 -10 -14 -77 -27 -148 -14 -71 -27
-140 -30 -154 -3 -21 -31 -167 -41 -222 -3 -16 5 -18 78 -18 l82 0 30 77 30
78 43 0 c23 0 42 -4 42 -10 0 -15 -42 -199 -47 -205 -2 -2 -126 -5 -274 -5
l-270 0 3 30 c3 26 8 31 47 41 45 11 45 10 54 79 3 17 7 37 10 45 4 8 9 33 11
55 5 42 14 90 21 115 2 8 7 31 10 50 3 19 8 46 10 60 12 57 15 77 21 121 6 44
5 46 -17 44 -39 -3 -49 5 -46 40 l2 32 183 0 182 -1 -2 -29z m-4750 -223 c20
-2 51 -6 71 -9 55 -10 113 -17 144 -18 15 0 27 -3 27 -6 0 -3 17 -7 38 -8 20
0 55 -4 77 -8 22 -3 54 -8 70 -10 17 -2 46 -6 65 -9 33 -6 80 -13 140 -21 14
-2 45 -6 70 -10 25 -4 59 -8 75 -10 17 -1 30 -4 30 -5 0 -1 16 -4 35 -5 19 -2
51 -6 70 -9 36 -7 113 -17 140 -19 11 -1 15 -13 16 -42 0 -22 4 -62 7 -90 3
-27 9 -72 12 -100 4 -27 15 -95 26 -150 11 -55 22 -109 24 -120 6 -27 46 -176
53 -195 3 -8 4 -18 4 -22 -1 -5 3 -8 9 -8 5 0 8 -4 5 -8 -5 -8 21 -93 46 -152
6 -14 14 -34 18 -45 41 -109 84 -205 92 -205 5 0 7 -4 3 -9 -3 -5 0 -15 7 -23
7 -7 13 -17 13 -23 1 -18 28 -65 37 -65 5 0 6 -5 3 -10 -3 -6 1 -17 9 -26 9
-8 16 -21 16 -28 0 -7 10 -23 23 -36 12 -14 21 -27 21 -30 -2 -10 19 -50 28
-50 4 0 7 -3 6 -7 -4 -12 48 -94 55 -88 4 3 5 2 2 -1 -5 -7 54 -97 67 -102 4
-2 8 -8 8 -14 0 -16 37 -58 45 -50 3 4 5 3 4 -3 -5 -14 57 -96 66 -87 3 4 5 2
3 -4 -3 -10 65 -96 120 -151 l23 -23 -21 -35 c-12 -20 -27 -41 -34 -48 -34
-35 -211 -280 -208 -289 1 -5 -2 -7 -8 -3 -5 3 -10 2 -10 -3 0 -4 -8 -17 -17
-28 -48 -53 -111 -143 -93 -132 11 7 20 16 20 21 0 4 5 5 10 2 6 -3 10 1 10 9
0 9 4 15 9 14 5 -2 17 6 26 17 9 11 14 13 10 5 -4 -10 -2 -9 8 2 8 10 17 15
20 11 4 -3 7 1 7 11 0 9 5 14 10 11 6 -3 13 0 16 8 3 9 16 18 30 21 13 4 23
12 21 18 -1 7 3 12 10 13 7 0 19 9 28 20 9 11 14 13 10 5 -4 -8 5 -2 19 13 14
15 26 25 26 22 0 -7 88 62 108 85 12 13 13 13 7 0 -6 -13 -5 -13 7 0 28 33
117 90 123 80 3 -6 11 -8 16 -5 5 4 9 -1 9 -9 0 -8 5 -18 12 -22 7 -5 8 -3 3
6 -5 9 -4 11 3 6 7 -4 12 -13 12 -21 0 -14 28 -30 45 -26 5 2 7 -1 3 -5 -10
-9 54 -64 66 -57 5 3 6 2 3 -3 -3 -6 8 -19 24 -29 16 -11 29 -23 29 -27 0 -5
6 -8 14 -8 8 0 16 -3 18 -8 6 -15 85 -71 92 -65 3 3 6 2 6 -4 0 -6 50 -43 111
-82 61 -39 107 -66 103 -59 -4 7 5 1 20 -14 16 -15 32 -25 36 -23 5 3 15 -1
22 -9 19 -19 78 -48 78 -39 0 5 4 3 8 -3 6 -10 80 -48 212 -107 19 -8 80 -32
135 -52 55 -20 110 -40 123 -46 13 -5 28 -7 33 -4 5 4 9 1 9 -4 0 -6 8 -11 18
-11 9 0 52 -11 96 -25 43 -13 81 -24 85 -23 3 1 26 -4 50 -11 23 -7 45 -10 48
-7 3 3 14 1 23 -4 10 -5 35 -12 56 -15 22 -2 50 -7 63 -10 14 -2 47 -7 75 -10
28 -3 62 -7 76 -10 14 -2 52 -7 85 -10 33 -4 61 -7 62 -9 1 -1 5 -24 8 -51 7
-61 14 -112 20 -145 2 -14 11 -74 19 -135 21 -152 25 -181 36 -255 6 -36 12
-81 14 -100 3 -19 7 -48 9 -65 3 -16 8 -52 12 -80 3 -27 9 -66 11 -85 3 -19 7
-47 10 -62 3 -15 7 -43 9 -61 1 -19 6 -53 10 -76 l7 -43 -138 7 c-77 3 -152 8
-169 10 -16 2 -59 6 -95 9 -36 4 -78 8 -95 10 -16 2 -50 7 -75 10 -25 3 -56 8
-70 10 -13 3 -42 8 -65 12 -22 3 -83 15 -135 26 -52 11 -104 21 -116 22 -11 2
-24 5 -30 8 -5 4 -27 9 -49 13 -22 4 -44 10 -50 14 -5 3 -19 7 -30 9 -25 4
-36 7 -55 15 -31 12 -96 31 -110 32 -8 1 -24 6 -35 12 -11 6 -22 11 -25 11
-17 2 -142 49 -277 104 -67 28 -126 50 -130 50 -4 0 -20 9 -35 20 -15 10 -37
20 -48 21 -11 1 -20 5 -20 10 0 4 -5 5 -10 2 -5 -3 -10 -2 -10 4 0 5 -10 13
-22 16 -11 4 -43 20 -70 36 -26 16 -48 26 -48 22 0 -3 -8 1 -17 9 -10 8 -43
29 -73 45 -89 48 -105 57 -112 68 -5 7 -8 7 -8 0 0 -6 -3 -6 -8 0 -13 18 -146
100 -157 97 -5 -2 -7 0 -2 4 8 9 -73 60 -88 55 -5 -1 -7 1 -3 5 7 6 -33 43
-39 36 -2 -1 -11 6 -21 16 -10 9 -33 28 -52 42 -19 14 -48 37 -66 52 -17 16
-35 28 -38 28 -4 0 -17 10 -30 23 -56 55 -94 85 -100 80 -3 -4 -6 1 -6 9 0 15
-26 33 -43 29 -5 -1 -6 2 -3 7 6 11 -40 53 -48 45 -3 -4 -6 -2 -6 3 0 5 -60
70 -133 144 -72 74 -146 152 -163 172 -17 21 -35 34 -39 30 -5 -4 -5 -2 -2 4
3 6 -13 32 -37 57 -24 26 -41 47 -39 47 3 0 -12 19 -31 42 -20 23 -36 46 -36
50 0 5 -6 6 -12 2 -7 -4 -10 -4 -6 1 6 6 -31 66 -53 85 -3 3 -42 61 -87 130
-44 69 -90 135 -101 148 -11 12 -18 22 -15 22 7 0 -37 73 -49 81 -5 3 -8 9 -8
13 3 20 0 26 -11 20 -7 -4 -10 -4 -6 1 4 4 -7 33 -24 64 -17 31 -34 63 -38 71
-37 76 -46 90 -52 90 -4 0 -5 7 -2 15 4 8 1 15 -5 15 -6 0 -11 3 -10 8 2 15
-14 52 -22 52 -5 0 -8 3 -7 8 1 7 -9 34 -39 102 -33 76 -42 96 -56 135 -8 22
-24 64 -36 94 -12 29 -21 60 -21 67 0 8 -5 14 -11 14 -5 0 -8 4 -5 8 3 5 -6
41 -19 81 -14 40 -25 77 -25 81 0 5 -5 21 -11 37 -7 15 -13 35 -14 43 -5 27
-46 195 -52 210 -3 8 -7 24 -8 35 -4 37 -16 100 -22 120 -4 11 -7 27 -8 35 -9
75 -17 127 -20 140 -4 15 -9 57 -20 165 -3 33 -8 78 -10 100 -3 22 -7 94 -10
159 -6 127 -1 142 39 129 11 -3 35 -7 54 -9z m8617 -81 c-2 -54 -7 -129 -10
-168 -4 -38 -8 -92 -10 -120 -1 -27 -6 -70 -9 -95 -4 -25 -9 -56 -11 -70 -6
-45 -17 -115 -21 -135 -2 -10 -6 -37 -10 -59 -3 -22 -7 -43 -9 -46 -2 -3 -6
-25 -10 -50 -4 -25 -9 -48 -11 -52 -3 -4 -7 -20 -9 -35 -3 -16 -9 -46 -15 -68
-6 -22 -13 -48 -15 -59 -2 -10 -12 -44 -21 -75 -9 -31 -17 -60 -19 -66 -1 -5
-5 -17 -8 -25 -3 -8 -13 -37 -21 -65 -8 -27 -24 -74 -34 -102 -11 -29 -19 -53
-17 -53 2 0 -2 -12 -10 -27 -8 -15 -12 -30 -9 -35 3 -4 1 -8 -3 -8 -11 0 -34
-60 -27 -71 3 -5 1 -9 -4 -9 -10 0 -48 -89 -44 -102 1 -5 -2 -8 -8 -8 -5 0
-10 -5 -10 -12 0 -6 -23 -59 -52 -117 -28 -58 -52 -108 -53 -111 0 -3 -11 -20
-22 -39 -12 -19 -20 -38 -17 -43 3 -4 -2 -11 -10 -14 -9 -3 -16 -15 -16 -25 0
-10 -4 -19 -8 -19 -4 0 -19 -22 -33 -50 -13 -27 -27 -50 -31 -50 -5 0 -8 -5
-8 -11 0 -5 -18 -37 -40 -70 -23 -32 -39 -59 -36 -59 3 0 -6 -12 -19 -26 -14
-15 -25 -31 -25 -36 0 -5 -4 -14 -10 -21 -47 -57 -61 -77 -55 -77 3 0 -4 -10
-15 -22 -37 -39 -60 -75 -52 -82 4 -4 3 -6 -3 -4 -5 2 -11 1 -11 -2 -1 -3 -18
-22 -38 -43 -20 -21 -33 -43 -30 -49 4 -7 2 -8 -4 -4 -7 4 -12 3 -12 -1 0 -5
-18 -29 -39 -53 -22 -25 -37 -48 -34 -53 2 -4 1 -6 -4 -5 -12 4 -94 -88 -85
-97 4 -5 1 -5 -5 -1 -8 5 -13 1 -13 -10 0 -10 -2 -15 -5 -12 -3 3 -60 -50
-128 -116 -67 -67 -141 -138 -164 -158 -23 -20 -38 -39 -35 -43 4 -4 2 -5 -3
-3 -14 4 -65 -37 -65 -52 0 -6 -4 -9 -8 -6 -5 3 -27 -12 -50 -33 -23 -21 -42
-37 -42 -34 0 2 -10 -5 -22 -17 -12 -11 -26 -20 -30 -20 -5 0 -6 -5 -3 -10 4
-6 3 -9 -2 -8 -11 3 -93 -53 -93 -64 0 -5 -4 -7 -8 -4 -5 3 -23 -8 -40 -23
-17 -16 -33 -26 -36 -23 -3 3 -6 0 -6 -6 0 -7 -4 -12 -8 -12 -8 0 -166 -100
-189 -120 -7 -5 -17 -10 -23 -10 -5 0 -10 -5 -10 -12 0 -6 -3 -8 -6 -5 -4 4
-19 -2 -34 -13 -16 -11 -33 -20 -39 -20 -5 0 -14 -6 -18 -14 -4 -8 -12 -14
-16 -14 -12 0 -101 -46 -109 -57 -5 -7 -8 -7 -8 0 0 7 -3 7 -8 0 -8 -11 -139
-77 -161 -81 -8 -2 -17 -8 -21 -14 -4 -7 -10 -11 -14 -11 -17 3 -56 -12 -56
-22 0 -6 -3 -8 -6 -5 -3 4 -24 -2 -47 -12 -23 -10 -60 -26 -82 -36 -22 -9 -42
-18 -45 -18 -31 -6 -150 -53 -150 -59 0 -4 -4 -6 -9 -3 -5 4 -22 1 -38 -5 -32
-12 -178 -57 -208 -64 -11 -2 -54 -14 -95 -25 -41 -11 -93 -23 -115 -26 -21
-3 -44 -8 -49 -12 -6 -3 -20 -7 -32 -8 -12 -1 -39 -5 -60 -9 -22 -4 -48 -8
-59 -10 -11 -2 -49 -8 -85 -14 -63 -10 -101 -15 -185 -25 -87 -11 -215 -19
-320 -20 -91 -1 -109 2 -107 13 2 8 5 31 7 50 2 20 7 54 10 76 3 22 8 56 10
75 3 19 7 49 9 65 3 17 8 50 11 75 3 25 8 59 11 75 2 17 6 46 8 65 3 19 7 49
10 65 3 17 8 50 11 74 3 23 8 57 11 75 6 33 11 75 19 146 2 25 7 56 10 70 3
14 7 43 10 65 3 22 8 56 11 75 3 19 6 47 6 63 0 15 3 27 7 28 3 0 27 2 53 4
85 7 225 25 298 40 13 2 42 7 65 11 69 10 300 72 407 110 57 20 111 38 121 41
9 3 17 10 17 15 0 5 4 7 9 4 10 -6 233 91 242 105 3 6 8 9 11 7 6 -4 122 55
126 65 2 4 10 7 18 7 8 0 14 5 14 11 0 5 4 8 9 5 5 -3 19 3 32 13 13 10 29 20
34 22 28 11 115 72 115 80 0 6 4 8 9 4 6 -3 14 3 20 12 6 10 11 15 11 10 0
-10 190 133 190 144 0 5 3 8 8 6 4 -1 18 8 32 21 13 12 28 22 32 22 5 0 6 5 3
10 -3 6 1 10 9 10 8 0 24 12 35 26 12 15 21 23 21 18 0 -5 7 2 16 14 8 12 21
22 29 22 12 0 469 -336 535 -393 22 -20 23 -20 10 -2 -8 11 -21 24 -28 28 -7
5 -10 12 -7 17 3 5 -3 15 -15 22 -11 7 -20 19 -20 26 0 7 -4 11 -9 8 -5 -3
-14 8 -21 24 -7 17 -16 30 -21 30 -5 0 -9 6 -9 14 0 7 -11 21 -24 32 -14 10
-27 28 -31 41 -3 13 -10 21 -15 18 -5 -3 -12 6 -16 20 -3 14 -10 25 -15 25 -5
0 -9 7 -9 15 0 8 -7 15 -16 15 -8 0 -13 4 -10 9 3 5 -1 12 -10 15 -9 4 -14 9
-11 12 3 3 -2 14 -11 24 -54 58 -65 73 -52 66 13 -6 13 -5 0 6 -26 22 -62 78
-51 78 6 0 11 7 11 17 0 9 3 14 6 10 3 -3 18 8 33 26 14 18 40 47 56 66 17 18
29 38 27 43 -1 5 2 7 8 3 5 -3 10 -3 10 2 0 4 13 23 29 42 17 19 28 38 25 42
-2 4 1 11 7 15 8 5 9 3 4 -6 -5 -9 -4 -11 3 -6 7 4 12 12 12 18 0 6 7 16 14
22 8 6 16 18 18 26 2 8 11 21 21 28 9 7 15 17 12 22 -3 4 -2 10 3 12 13 5 84
108 75 108 -4 0 -3 4 3 8 13 9 63 86 66 104 2 7 6 15 9 18 13 10 59 100 52
100 -4 0 -3 4 3 8 14 10 56 92 46 92 -4 0 -2 4 4 8 18 11 115 249 113 276 0 5
3 12 8 15 11 8 86 249 87 279 0 12 3 22 6 22 4 0 7 6 8 13 1 18 10 72 12 72 2
0 4 12 23 115 24 130 40 255 41 318 1 17 3 32 6 33 10 2 46 6 100 13 30 4 80
11 110 16 56 9 104 16 175 25 22 2 85 12 140 20 106 16 145 22 210 30 49 6
102 13 180 25 33 5 83 12 110 16 28 3 51 7 52 8 1 1 20 3 42 4 l40 3 -4 -98z
m-1744 -155 c1 -7 0 -17 -1 -23 -3 -13 -7 -40 -14 -85 -3 -19 -8 -46 -11 -60
-2 -13 -7 -42 -10 -63 -4 -22 -10 -50 -16 -63 -5 -14 -8 -28 -7 -32 1 -4 -1
-14 -4 -22 -21 -55 -56 -185 -52 -192 3 -4 0 -8 -5 -8 -6 0 -11 -6 -11 -12 0
-7 -16 -51 -36 -98 -20 -47 -36 -91 -37 -97 0 -7 -3 -13 -7 -13 -6 0 -35 -72
-31 -79 2 -2 -1 -7 -6 -10 -5 -3 -29 -42 -53 -86 -23 -44 -51 -92 -61 -107
-11 -14 -19 -28 -19 -31 0 -3 -26 -42 -57 -87 -32 -45 -62 -90 -68 -99 -5 -9
-16 -20 -22 -24 -7 -4 -13 -12 -13 -17 0 -6 -18 -29 -39 -52 -22 -23 -38 -45
-36 -48 2 -4 -3 -7 -11 -7 -9 0 -20 11 -25 24 -5 13 -13 23 -19 23 -6 0 -9 4
-6 8 3 5 -4 15 -15 22 -10 8 -19 20 -19 27 0 6 -9 18 -20 26 -11 8 -17 17 -14
20 4 4 -1 9 -10 13 -9 3 -16 12 -16 20 0 7 -10 20 -22 28 -12 9 -18 16 -13 16
6 0 -1 10 -15 21 -14 11 -18 18 -10 14 8 -4 5 3 -8 16 -40 42 -102 126 -102
139 0 6 -4 8 -10 5 -5 -3 -10 0 -10 7 0 7 -11 26 -25 41 -14 15 -23 27 -19 27
4 0 -5 10 -19 23 -15 12 -27 27 -27 32 0 6 -14 25 -30 43 -16 19 -32 42 -35
53 -4 11 -11 17 -16 14 -5 -4 -9 1 -9 10 0 8 -7 18 -15 21 -8 4 -13 10 -10 14
3 4 -2 11 -11 14 -9 4 -14 9 -11 13 4 3 -1 13 -11 22 -9 9 -28 32 -41 51 -14
19 -30 39 -38 43 -7 4 -13 14 -13 21 0 6 -15 29 -34 49 -18 20 -32 37 -29 37
2 0 -2 6 -9 14 -29 30 -48 57 -48 66 0 5 -9 14 -20 20 -11 6 -20 16 -20 22 0
6 -8 17 -17 25 -11 9 -12 12 -3 7 9 -4 7 2 -5 13 -49 50 -67 82 -47 84 4 0 16
2 27 4 20 4 75 12 144 21 19 2 46 6 60 8 14 3 46 7 71 11 25 4 56 8 70 10 14
3 43 7 65 9 22 3 56 8 75 10 19 3 86 12 148 21 62 9 121 18 130 19 21 4 94 14
147 21 22 3 56 7 75 10 19 3 51 8 70 10 117 16 250 35 280 41 14 2 50 7 80 10
30 3 57 8 59 10 9 8 21 4 22 -8z m-5096 -14 c17 -3 44 -7 60 -9 17 -2 50 -7
75 -10 92 -14 106 -16 135 -19 17 -2 30 -5 30 -6 0 -1 18 -4 40 -5 22 -2 56
-6 75 -10 19 -3 51 -8 70 -10 19 -2 53 -6 75 -10 22 -4 54 -8 70 -10 17 -2 48
-6 70 -10 50 -8 78 -12 135 -20 93 -12 106 -14 145 -20 50 -8 95 -14 142 -20
20 -2 52 -7 72 -10 20 -4 54 -8 76 -11 22 -3 51 -7 65 -9 14 -1 33 -3 43 -4
29 -2 27 -5 -83 -151 -130 -173 -167 -226 -163 -234 4 -5 1 -6 -4 -3 -10 7
-69 -71 -65 -85 1 -5 -5 -8 -14 -8 -8 0 -12 -4 -9 -10 3 -5 2 -10 -3 -10 -4 0
-48 -55 -97 -122 -49 -68 -99 -134 -112 -147 -12 -14 -20 -28 -17 -33 3 -4 1
-8 -4 -8 -9 0 -150 -182 -145 -187 1 -1 -10 -15 -25 -31 -15 -16 -49 -61 -77
-100 -27 -40 -54 -72 -60 -72 -5 0 -21 16 -35 34 -14 19 -29 32 -34 28 -5 -3
-6 0 -3 5 6 10 -1 20 -59 85 -13 15 -24 31 -24 36 0 4 -13 22 -30 40 -16 18
-29 36 -29 40 -1 19 -36 70 -45 65 -6 -4 -8 -3 -4 2 7 7 -25 70 -42 85 -8 7
-117 231 -125 258 -3 12 -11 22 -17 22 -6 0 -9 3 -5 6 3 3 1 18 -5 33 -29 73
-70 188 -74 206 -2 11 -17 72 -34 135 -16 63 -32 126 -34 140 -3 14 -7 36 -10
48 -3 13 -8 51 -12 83 l-7 59 49 -5 c27 -3 63 -8 79 -11z m1976 -766 c0 -13 2
-30 4 -38 1 -8 8 -55 14 -105 7 -49 14 -101 16 -115 2 -14 6 -41 9 -60 13 -94
28 -198 31 -220 3 -14 7 -50 11 -80 3 -30 8 -64 10 -75 2 -11 7 -40 10 -65 5
-42 7 -59 18 -127 4 -24 16 -106 31 -213 2 -14 6 -50 10 -80 3 -30 10 -77 15
-105 25 -139 30 -241 13 -238 -40 8 -83 15 -113 19 -78 9 -292 60 -380 91 -25
8 -49 16 -55 17 -5 2 -23 9 -40 15 -16 7 -34 14 -40 16 -5 1 -28 10 -50 20
-22 9 -45 18 -51 19 -6 1 -23 10 -38 20 -15 9 -36 18 -47 19 -10 1 -19 4 -19
8 0 6 -30 17 -47 17 -3 0 -9 5 -12 10 -7 10 -94 56 -100 53 -2 -2 -7 2 -10 7
-11 18 -139 91 -147 84 -4 -4 -4 -2 -1 4 3 6 -16 24 -43 40 -27 16 -50 32 -50
36 0 3 -15 16 -33 27 -32 19 -49 33 -111 88 l-28 25 28 24 c16 13 34 28 41 34
7 5 17 10 22 10 5 0 18 11 29 25 11 14 25 25 30 25 6 0 16 8 21 18 6 9 11 13
11 9 0 -8 14 2 55 41 14 13 25 20 25 17 0 -4 6 0 14 7 29 28 57 48 65 48 5 0
16 10 25 23 9 12 14 15 11 7 -4 -8 2 -5 13 8 11 12 23 22 26 22 6 0 38 25 68
53 10 9 18 15 18 12 0 -6 17 7 55 43 14 13 25 20 25 18 0 -6 28 15 59 44 9 8
29 21 44 29 15 8 27 18 27 23 0 4 7 8 16 8 8 0 12 5 9 10 -3 6 1 10 10 10 8 0
18 7 21 15 4 8 10 15 16 15 5 0 16 6 23 13 7 6 39 30 69 51 31 22 56 43 56 48
0 4 7 8 15 8 9 0 18 7 21 15 4 8 11 15 18 15 6 0 23 11 38 25 15 14 30 25 32
25 8 0 44 29 74 60 14 14 22 18 18 10 -5 -9 -2 -8 7 3 8 9 19 17 26 17 6 0 11
5 11 10 0 21 30 9 31 -12z m1042 11 c11 -7 26 -16 31 -21 28 -23 315 -238 320
-238 3 0 17 -11 32 -25 14 -13 31 -22 37 -18 6 3 7 1 3 -5 -4 -6 4 -16 16 -23
12 -7 28 -17 34 -23 14 -13 46 -37 124 -95 30 -22 60 -44 65 -48 6 -5 25 -20
44 -33 19 -14 45 -33 57 -44 12 -10 24 -17 26 -15 1 2 21 -13 43 -34 21 -20
42 -37 46 -37 3 0 22 -13 40 -30 19 -16 37 -30 40 -30 3 0 19 -11 35 -25 16
-14 47 -38 69 -53 22 -15 46 -33 54 -40 8 -7 25 -20 38 -29 13 -9 29 -25 35
-37 6 -12 7 -18 4 -14 -7 6 -163 -113 -178 -136 -4 -6 -8 -7 -8 -2 0 5 -10 0
-22 -10 -13 -11 -48 -36 -78 -54 -30 -19 -57 -37 -60 -40 -9 -9 -84 -51 -102
-57 -10 -3 -18 -10 -18 -15 0 -5 -4 -6 -10 -3 -5 3 -10 1 -10 -4 0 -6 -6 -11
-14 -11 -8 0 -22 -7 -30 -16 -9 -8 -16 -13 -16 -10 0 2 -42 -15 -92 -38 -94
-43 -125 -57 -143 -62 -5 -1 -57 -19 -114 -39 -95 -32 -235 -70 -301 -81 -14
-3 -47 -9 -75 -14 -27 -5 -70 -12 -95 -16 -25 -3 -49 -6 -55 -7 -5 -1 -9 7 -9
18 2 31 13 117 18 145 3 14 8 48 11 75 9 76 12 96 20 145 4 25 9 56 10 70 2
14 6 48 10 75 4 28 9 61 10 75 2 14 7 43 10 65 4 22 9 54 11 70 9 68 16 123
28 200 3 22 8 60 12 85 3 25 7 54 9 65 1 11 6 41 9 65 3 25 8 54 10 65 2 11 7
47 11 80 10 81 13 102 21 155 3 25 7 55 7 68 1 26 1 26 30 11z"/>
</g>
</svg>
